Estou reupando este filme, porque tivemos problema para descompactar o arquivo, peço DESCULPAS A TODOS. 
Meus proximos torrents serão todos postados como Zagor Lukas que é meu nome, e não mais com fantasma.

Sinopse e detalhes

Billy Hoyle (Woody Harrelson) e Sidney Deane (Wesley Snipes) se consideram os melhores jogadores de basquete de Los Angeles. Eles decidem unir forças e passam a enganar seus competidores, fingindo que Billy nada sabe sobre o esporte. Só que, na quadra, eles arrasam ao aplicar um jogo rápido e repleto de brincadeiras. Entretanto, a parceria pode chegar ao fim devido a gângsters que estão atrás de Billy, que lhes deve dinheiro.


Format : Matroska
Format version : Version 2
File size : 760 MiB
Duration : 1h 55mn
Overall bit rate : 918 Kbps
Encoded date : UTC 2013-06-10 16:10:09
Writing application : mkvmerge v5.8.0 ('No Sleep / Pillow') built on Sep 2 2012 15:37:04
Writing library : libebml v1.2.3 + libmatroska v1.3.0

Video
ID : 1
Format : AVC
Format/Info : Advanced Video Codec
Format profile : High@L4.1
Format settings, CABAC : Yes
Format settings, ReFrames : 4 frames
Muxing mode : Header stripping
Codec ID : V_MPEG4/ISO/AVC
Duration : 1h 55mn
Bit rate : 708 Kbps
Width : 704 pixels
Height : 368 pixels
Display aspect ratio : 1.913
Frame rate mode : Constant
Frame rate : 23.976 fps
Color space : YUV
Chroma subsampling : 4:2:0
Bit depth : 8 bits
Scan type : Progressive
Bits/(Pixel*Frame) : 0.114
Stream size : 586 MiB (77%)
Title : Homens Brancos nao Sabem enterrar( Zagor Lukas )
Writing library : x264 core 130 r2273 b3065e6
Encoding settings : cabac=1 / ref=3 / deblock=1:0:0 / analyse=0x3:0x113 / me=hex / subme=7 / psy=1 / psy_rd=1.00:0.00 / mixed_ref=1 / me_range=16 / chroma_me=1 / trellis=1 / 8x8dct=1 / cqm=0 / deadzone=21,11 / fast_pskip=1 / chroma_qp_offset=-2 / threads=3 / lookahead_threads=1 / sliced_threads=0 / nr=0 / decimate=1 / interlaced=0 / bluray_compat=0 / constrained_intra=0 / bframes=3 / b_pyramid=2 / b_adapt=1 / b_bias=0 / direct=1 / weightb=1 / open_gop=0 / weightp=2 / keyint=240 / keyint_min=23 / scenecut=40 / intra_refresh=0 / rc_lookahead=40 / rc=crf / mbtree=1 / crf=23.0 / qcomp=0.60 / qpmin=0 / qpmax=69 / qpstep=4 / vbv_maxrate=62500 / vbv_bufsize=78125 / crf_max=0.0 / nal_hrd=none / ip_ratio=1.40 / aq=1:1.00
Language : Portuguese
Default : Yes
Forced : No

Audio
ID : 2
Format : AC-3
Format/Info : Audio Coding 3
Mode extension : CM (complete main)
Format settings, Endianness : Big
Muxing mode : Header stripping
Codec ID : A_AC3
Duration : 1h 55mn
Bit rate mode : Constant
Bit rate : 192 Kbps
Channel(s) : 2 channels
Channel positions : Front: L R
Sampling rate : 48.0 KHz
Bit depth : 16 bits
Compression mode : Lossy
Delay relative to video : 31ms
Stream size : 159 MiB (21%)
Title : por
Language : Portuguese
Default : Yes
Forced : No

Text #1
ID : 3
Format : VobSub
Muxing mode : zlib
Codec ID : S_VOBSUB
Codec ID/Info : The same subtitle format used on DVDs
Language : English
Default : No
Forced : No

Text #2
ID : 4
Format : VobSub
Muxing mode : zlib
Codec ID : S_VOBSUB
Codec ID/Info : The same subtitle format used on DVDs
Language : Portuguese
Default : No
Forced : No

Text #3
ID : 5
Format : VobSub
Muxing mode : zlib
Codec ID : S_VOBSUB
Codec ID/Info : The same subtitle format used on DVDs
Language : Portuguese
Default : No
Forced : No

Text #4
ID : 6
Format : VobSub
Muxing mode : zlib
Codec ID : S_VOBSUB
Codec ID/Info : The same subtitle format used on DVDs
Language : Spanish
Default : No
Forced : No

Text #5
ID : 7
Format : VobSub
Muxing mode : zlib
Codec ID : S_VOBSUB
Codec ID/Info : The same subtitle format used on DVDs
Language : Spanish
Default : No
Forced : No

Text #6
ID : 8
Format : ASS
Codec ID : S_TEXT/ASS
Codec ID/Info : Advanced Sub Station Alpha
Compression mode : Lossless
Title : Credito
Language : Portuguese
Default : Yes
Forced : No

Menu
00:00:00.000 : en:Chapter 01
00:04:45.801 : en:Chapter 02
00:12:00.068 : en:Chapter 03
00:19:40.568 : en:Chapter 04
00:24:33.635 : en:Chapter 05
00:31:28.835 : en:Chapter 06
00:36:13.469 : en:Chapter 07
00:42:09.170 : en:Chapter 08
00:50:45.804 : en:Chapter 09
00:58:44.171 : en:Chapter 10
01:09:11.438 : en:Chapter 11
01:20:26.306 : en:Chapter 12
01:27:04.339 : en:Chapter 13
01:41:20.273 : en:Chapter 14
01:48:09.940 : en:Chapter 15

